<svg width="100%" height="100%" viewBox="0 0 540 540" version="1.1" xmlns="http://www.w3.org/2000/svg" xmlns:xlink="http://www.w3.org/1999/xlink" xml:space="preserve" xmlns:serif="http://www.serif.com/" style="fill-rule:evenodd;clip-rule:evenodd;stroke-linecap:round;stroke-linejoin:round;stroke-miterlimit:1.5;">
    <g transform="matrix(1.37448,0,0,1.37448,-472.219,-58.4577)">
        <g transform="matrix(1,0,0,1,-16.3014,-63.1927)">
            <g transform="matrix(6.12323e-17,1,-1,6.12323e-17,823.387,-81.6674)">
                <g transform="matrix(1,0,0,1,578.36,42.481)">
                    <path d="M-94.243,295.818L-92.217,295.818C-92.037,296.103 -91.523,296.587 -90.999,297.235C-85.835,303.614 -77.959,309.529 -76.352,347.569C-74.481,391.855 -74.874,418.986 -74.887,420.038C-74.894,420.587 -75.34,421.026 -75.887,421.026L-75.899,421.026C-76.451,421.019 -76.893,420.566 -76.887,420.014C-76.874,418.963 -76.481,391.885 -78.35,347.653C-79.93,310.274 -87.493,304.746 -92.554,298.493C-93.851,296.89 -94.243,296.407 -94.243,295.818Z" style="fill:rgb(67,111,142);fill-rule:nonzero;"/>
                </g>
                <g transform="matrix(1,0,0,1,578.193,420.589)">
                    <path d="M-61.218,2.125L-76.04,2.012C-76.592,2.012 -77.04,1.565 -77.04,1.012C-77.04,0.459 -76.592,0.012 -76.04,0.012L-61.218,0.125C-60.665,0.125 -60.218,0.572 -60.218,1.125C-60.218,1.678 -60.665,2.125 -61.218,2.125" style="fill:rgb(67,111,142);fill-rule:nonzero;"/>
                </g>
                <g transform="matrix(1,0,0,1,578.193,433.625)">
                    <path d="M-61.147,2.042L-75.832,1.998C-76.384,1.998 -76.832,1.551 -76.832,0.998C-76.832,0.445 -76.384,-0.002 -75.832,-0.002L-61.147,0.042C-60.594,0.042 -60.147,0.489 -60.147,1.042C-60.147,1.595 -60.594,2.042 -61.147,2.042" style="fill:rgb(67,111,142);fill-rule:nonzero;"/>
                </g>
                <g transform="matrix(1,0,0,1,512.031,286.11)">
                    <path d="M-0.615,177.413C-1.166,177.413 -1.613,176.968 -1.615,176.417L-1.465,135.483L-4.867,53.213C-4.881,52.662 -4.444,52.203 -3.892,52.189C-3.347,52.171 -2.882,52.612 -2.868,53.165L0.535,135.454L0.385,176.409C0.387,176.962 -0.059,177.411 -0.611,177.413L-0.615,177.413Z" style="fill:rgb(67,111,142);fill-rule:nonzero;"/>
                </g>
            </g>
            <g transform="matrix(0.678564,0,0,0.748949,350.221,18.3101)">
                <path d="M197.314,443.775C197.314,440.483 194.365,437.811 190.732,437.811L22.271,437.811C18.638,437.811 15.689,440.483 15.689,443.775L15.689,551.114C15.689,554.405 18.638,557.077 22.271,557.077L190.732,557.077C194.365,557.077 197.314,554.405 197.314,551.114L197.314,443.775Z" style="fill:none;stroke:rgb(67,111,142);stroke-width:2.55px;"/>
            </g>
            <g transform="matrix(5.73221e-17,0.936141,-0.936141,5.73221e-17,654.89,216.804)">
                <g>
                    <g transform="matrix(1,0,0,1,215.404,218.118)">
                        <path d="M0,16.745L-0.015,16.745L-6.926,16.646C-7.27,16.641 -7.587,16.46 -7.766,16.166C-11.584,9.906 -9.276,2.741 -9.176,2.438C-9.061,2.089 -8.762,1.832 -8.399,1.768L-0.975,0.935C-0.43,0.839 0.087,1.203 0.182,1.747C0.277,2.291 -0.087,2.809 -0.631,2.904L-7.432,3.629C-7.839,5.276 -8.751,10.243 -6.331,14.654L0.014,14.745C0.566,14.753 1.007,15.207 1,15.759C0.992,16.307 0.545,16.745 0,16.745" style="fill:rgb(67,111,142);fill-rule:nonzero;"/>
                    </g>
                    <g transform="matrix(1,0,0,1,212.016,219.464)">
                        <path d="M0,14.851C-0.202,14.851 -0.392,14.728 -0.467,14.528C-3.588,6.306 -1.239,0.611 -1.137,0.372C-1.029,0.119 -0.735,0 -0.482,0.108C-0.229,0.216 -0.11,0.509 -0.217,0.764C-0.24,0.818 -2.501,6.35 0.467,14.174C0.565,14.432 0.436,14.721 0.177,14.818C0.119,14.841 0.059,14.851 0,14.851" style="fill:rgb(67,111,142);fill-rule:nonzero;"/>
                    </g>
                    <g transform="matrix(1,0,0,1,205.242,218.757)">
                        <path d="M0,16.739C-1.211,16.739 -2.328,15.993 -2.783,14.848C-5.011,9.235 -3.927,4.363 -3.082,1.958C-2.638,0.694 -1.282,0 0.002,0.383L2.624,1.163C3.153,1.321 3.455,1.878 3.297,2.407C3.139,2.936 2.581,3.238 2.054,3.08L-0.568,2.3C-0.833,2.22 -1.104,2.359 -1.195,2.621C-1.947,4.762 -2.913,9.102 -0.924,14.11C-0.766,14.507 -0.369,14.771 0.049,14.738L3.434,13.99C3.968,13.869 4.506,14.212 4.625,14.752C4.745,15.291 4.404,15.824 3.864,15.944L0.413,16.705C0.375,16.714 0.337,16.72 0.299,16.723C0.199,16.734 0.099,16.739 0,16.739" style="fill:rgb(67,111,142);fill-rule:nonzero;"/>
                    </g>
                    <g transform="matrix(1,0,0,1,178.748,197.117)">
                        <path d="M0,57.964C-2.101,57.964 -4.245,57.563 -6.258,56.75C-10.734,54.943 -14.019,51.343 -15.269,46.873C-17.989,37.147 -19.03,18.591 -12.831,7.789C-9.95,2.767 -5.542,0.001 -0.42,0L-0.417,0C5.123,0 10.753,3.322 13.594,8.267C15.846,12.187 18.879,14.255 21.556,16.08C22.657,16.831 23.697,17.54 24.547,18.302C27.85,21.266 26.659,23.265 26.512,23.483L24.853,22.367C24.853,22.367 24.833,22.388 24.813,22.433C24.917,22.192 24.832,21.245 23.211,19.791C22.461,19.117 21.519,18.475 20.429,17.732C17.716,15.882 14.34,13.581 11.86,9.263C9.364,4.919 4.431,2 -0.417,2L-0.42,2C-3.515,2.001 -7.879,3.178 -11.097,8.784C-16.39,18.009 -16.384,35.458 -13.343,46.334C-12.245,50.259 -9.463,53.3 -5.509,54.896C-1.511,56.508 3.048,56.291 6.394,54.327C9.775,52.342 11.419,49.703 12.869,47.375C13.992,45.572 15.053,43.869 16.731,42.722C18.021,41.84 19.453,41.127 20.837,40.437C22.927,39.395 25.088,38.317 25.134,37.296C25.159,36.744 25.652,36.322 26.178,36.342C26.729,36.367 27.157,36.834 27.132,37.386C27.033,39.582 24.575,40.808 21.729,42.226C20.406,42.886 19.037,43.569 17.859,44.374C16.528,45.283 15.619,46.742 14.567,48.432C12.995,50.956 11.212,53.817 7.407,56.052C5.246,57.32 2.658,57.964 0,57.964" style="fill:rgb(67,111,142);fill-rule:nonzero;"/>
                    </g>
                    <g transform="matrix(1,0,0,1,201.875,202.533)">
                        <path d="M0,21.355C0.073,20.217 -0.227,18.939 -0.767,17.855C-1.326,16.763 -2.138,15.793 -3.13,15.029C-5.182,13.551 -7.567,12.367 -9.552,10.606C-11.514,8.794 -12.796,6.472 -14.153,4.277C-14.837,3.18 -15.6,2.127 -16.554,1.254C-17.513,0.391 -18.678,-0.241 -19.929,-0.592C-18.668,-0.282 -17.472,0.315 -16.472,1.16C-15.477,2.013 -14.667,3.059 -13.944,4.14C-12.513,6.303 -11.159,8.558 -9.221,10.231C-7.254,11.87 -4.89,12.946 -2.68,14.429C-0.491,15.999 1.07,18.578 0.995,21.453C0.988,21.73 0.758,21.947 0.482,21.94C0.207,21.933 -0.012,21.703 -0.004,21.427C-0.004,21.421 -0.004,21.416 -0.003,21.41L0,21.355Z" style="fill:rgb(67,111,142);fill-rule:nonzero;"/>
                    </g>
                    <g transform="matrix(1,0,0,1,203.007,251.346)">
                        <path d="M0,-20.855C-0.488,-19.415 -1.364,-18.359 -2.367,-17.415C-3.361,-16.478 -4.554,-15.762 -5.719,-15.158C-7.986,-13.946 -9.88,-12.09 -11.482,-10.038C-13.086,-7.973 -14.429,-5.706 -15.792,-3.451C-16.465,-2.333 -17.268,-1.185 -18.462,-0.551C-19.629,0.096 -20.925,0.411 -22.201,0.718C-20.937,0.372 -19.649,0.013 -18.526,-0.659C-17.379,-1.317 -16.646,-2.442 -16.006,-3.579C-14.718,-5.871 -13.444,-8.189 -11.881,-10.338C-10.319,-12.474 -8.435,-14.457 -6.083,-15.813C-4.935,-16.457 -3.871,-17.147 -2.97,-18.049C-2.08,-18.912 -1.296,-20.016 -0.972,-21.092L-0.951,-21.16C-0.872,-21.424 -0.593,-21.573 -0.329,-21.494C-0.065,-21.414 0.085,-21.135 0.005,-20.871C0.004,-20.866 0.001,-20.86 0,-20.855" style="fill:rgb(67,111,142);fill-rule:nonzero;"/>
                    </g>
                </g>
                <g id="S1-fill">
                    <g transform="matrix(-0.999969,-0.00785439,-0.00810485,1.03186,205.883,220.545)">
                        <path d="M0,12.744C0,12.744 0.337,15.439 3.62,16.852C11.428,20.214 12.478,23.298 16.779,28.241C20.966,33.054 32,36.453 38.783,27.923C47.016,17.569 43.469,-9.908 36.719,-18.053C31.215,-24.694 19.147,-22.314 15.085,-15.092C11.022,-7.871 6.311,-6.626 2.717,-3.459C0.598,-1.592 0.066,-1.001 0,0.14" style="fill:rgb(67,111,142);fill-rule:nonzero;"/>
                    </g>
                    <g transform="matrix(-0.985271,0.171003,0.171003,0.985271,225.447,236.1)">
                        <path d="M7.26,-18.577L19.424,-18.432L20.27,-5.281L8.674,-3.082" style="fill:rgb(67,111,142);fill-rule:nonzero;"/>
                    </g>
                    <g transform="matrix(1,0,0,1,212.016,219.464)">
                        <path d="M0,14.851C-0.202,14.851 -0.392,14.728 -0.467,14.528C-3.588,6.306 -1.239,0.611 -1.137,0.372C-1.029,0.119 -0.735,0 -0.482,0.108C-0.229,0.216 -0.11,0.509 -0.217,0.764C-0.24,0.818 -2.501,6.35 0.467,14.174C0.565,14.432 0.436,14.721 0.177,14.818C0.119,14.841 0.059,14.851 0,14.851" style="fill:white;fill-rule:nonzero;"/>
                    </g>
                    <g transform="matrix(1,0,0,1,201.875,202.533)">
                        <path d="M0,21.355C0.073,20.217 -0.227,18.939 -0.767,17.855C-1.326,16.763 -2.138,15.793 -3.13,15.029C-5.182,13.551 -7.567,12.367 -9.552,10.606C-11.514,8.794 -12.796,6.472 -14.153,4.277C-14.837,3.18 -15.6,2.127 -16.554,1.254C-17.513,0.391 -18.678,-0.241 -19.929,-0.592C-18.668,-0.282 -17.472,0.315 -16.472,1.16C-15.477,2.013 -14.667,3.059 -13.944,4.14C-12.513,6.303 -11.159,8.558 -9.221,10.231C-7.254,11.87 -4.89,12.946 -2.68,14.429C-0.491,15.999 1.07,18.578 0.995,21.453C0.988,21.73 0.758,21.947 0.482,21.94C0.207,21.933 -0.012,21.703 -0.004,21.427C-0.004,21.421 -0.004,21.416 -0.003,21.41L0,21.355Z" style="fill:white;fill-rule:nonzero;"/>
                    </g>
                    <g transform="matrix(1,0,0,1,203.007,251.346)">
                        <path d="M0,-20.855C-0.488,-19.415 -1.364,-18.359 -2.367,-17.415C-3.361,-16.478 -4.554,-15.762 -5.719,-15.158C-7.986,-13.946 -9.88,-12.09 -11.482,-10.038C-13.086,-7.973 -14.429,-5.706 -15.792,-3.451C-16.465,-2.333 -17.268,-1.185 -18.462,-0.551C-19.629,0.096 -20.925,0.411 -22.201,0.718C-20.937,0.372 -19.649,0.013 -18.526,-0.659C-17.379,-1.317 -16.646,-2.442 -16.006,-3.579C-14.718,-5.871 -13.444,-8.189 -11.881,-10.338C-10.319,-12.474 -8.435,-14.457 -6.083,-15.813C-4.935,-16.457 -3.871,-17.147 -2.97,-18.049C-2.08,-18.912 -1.296,-20.016 -0.972,-21.092L-0.951,-21.16C-0.872,-21.424 -0.593,-21.573 -0.329,-21.494C-0.065,-21.414 0.085,-21.135 0.005,-20.871C0.004,-20.866 0.001,-20.86 0,-20.855" style="fill:white;fill-rule:nonzero;"/>
                    </g>
                </g>
            </g>
        </g>
        <g transform="matrix(0.979054,0,0,0.979054,25.0087,-0.0999356)">
            <g transform="matrix(1,0,0,1,578.36,42.481)">
                <path d="M-0.167,402.343C-0.714,402.343 -1.16,401.904 -1.167,401.355C-1.18,400.303 -1.361,391.969 -0.368,347.569C0.483,309.505 16.954,290.115 22.119,283.736C22.643,283.088 23.183,282.422 23.362,282.136L23.362,272.844C23.362,270.965 24.769,268.037 26.716,263.982C30.213,256.701 35.002,246.728 35.002,236.165C35.002,228.675 30.886,219.182 28.427,213.51C27.037,210.303 26.422,208.85 26.422,208.014L26.422,203.325C23.586,203.556 16.164,203.614 10.629,198.889C6.409,195.286 4.27,189.731 4.27,182.379C4.27,160.831 28.801,144.556 34.112,141.285C30.566,135.944 33.926,129.383 38.478,120.492C42.998,111.662 48.625,100.673 51.261,85.334C56.39,55.491 35.82,40.874 29.061,36.071C28.623,35.761 28.237,35.487 27.914,35.248C23.08,31.696 20.135,25.798 19.261,23.866C-24.992,23.665 -37.397,3.243 -38.021,2.164C-38.012,2.189 -38.119,2.063 -38.243,2.051C-38.367,2.035 -38.568,2.132 -38.785,2.306C-40.07,4.412 -53.013,23.671 -95.982,23.866C-96.855,25.798 -99.8,31.696 -104.634,35.248C-104.958,35.487 -105.343,35.76 -105.78,36.071C-112.54,40.873 -133.111,55.489 -127.982,85.334C-125.345,100.672 -119.719,111.662 -115.198,120.491C-110.646,129.382 -107.287,135.944 -110.833,141.285C-105.521,144.556 -80.99,160.831 -80.99,182.379C-80.99,189.731 -83.13,195.286 -87.35,198.889C-92.884,203.614 -100.304,203.555 -103.143,203.325L-103.143,208.014C-103.143,208.85 -103.757,210.303 -105.148,213.51C-107.607,219.182 -111.723,228.675 -111.723,236.165C-111.723,246.728 -106.934,256.701 -103.437,263.982C-101.49,268.037 -100.083,270.965 -100.083,272.844L-100.083,282.137C-99.903,282.422 -99.363,283.088 -98.839,283.736C-93.675,290.115 -76.714,309.497 -76.352,347.569C-75.925,392.479 -76.076,400.279 -76.089,401.331C-76.096,401.88 -76.542,402.319 -77.089,402.319L-77.101,402.319C-77.653,402.312 -78.095,401.859 -78.089,401.307C-78.076,400.256 -78.085,392.799 -78.35,347.653C-78.569,310.241 -95.333,291.247 -100.394,284.994C-101.691,283.391 -102.083,282.908 -102.083,282.319L-102.083,272.844C-102.083,271.421 -103.546,268.374 -105.24,264.848C-108.618,257.813 -113.723,247.183 -113.723,236.165C-113.723,228.26 -109.503,218.529 -106.983,212.714C-106.088,210.651 -105.163,208.517 -105.143,208.01L-105.143,202.208C-105.143,201.916 -105.014,201.639 -104.792,201.449C-104.57,201.258 -104.279,201.173 -103.987,201.221C-103.896,201.234 -94.76,202.595 -88.638,197.358C-84.891,194.152 -82.99,189.113 -82.99,182.379C-82.99,159.889 -112.499,142.611 -112.797,142.439C-113.054,142.291 -113.231,142.037 -113.283,141.746C-113.334,141.454 -113.253,141.155 -113.063,140.929C-109.281,136.437 -112.343,130.457 -116.979,121.403C-121.32,112.924 -127.265,101.312 -129.953,85.673C-135.295,54.587 -113.952,39.423 -106.938,34.44C-106.511,34.137 -106.135,33.87 -105.818,33.637C-100.564,29.775 -97.595,22.564 -97.566,22.492C-97.413,22.115 -97.046,21.868 -96.639,21.868C-52.89,21.868 -40.546,1.361 -40.427,1.154C-40.374,1.063 -40.306,0.978 -40.228,0.908C-39.317,0.09 -38.504,0 -37.978,0.068C-36.942,0.204 -36.385,1.013 -36.325,1.104C-36.175,1.361 -23.83,21.868 19.918,21.868C20.325,21.868 20.691,22.115 20.845,22.492C20.874,22.564 23.843,29.775 29.098,33.637C29.415,33.87 29.791,34.138 30.219,34.441C37.232,39.424 58.574,54.589 53.231,85.673C50.544,101.312 44.599,112.924 40.258,121.403C35.622,130.457 32.561,136.437 36.342,140.929C36.532,141.155 36.613,141.454 36.562,141.746C36.511,142.037 36.333,142.291 36.076,142.439C35.778,142.611 6.27,159.889 6.27,182.379C6.27,189.113 8.17,194.152 11.917,197.358C18.039,202.596 27.176,201.235 27.266,201.221C27.558,201.177 27.85,201.259 28.071,201.449C28.294,201.639 28.422,201.916 28.422,202.208L28.422,208.014C28.442,208.517 29.367,210.651 30.262,212.714C32.783,218.529 37.002,228.26 37.002,236.165C37.002,247.183 31.896,257.813 28.519,264.848C26.825,268.374 25.362,271.421 25.362,272.844L25.362,282.319C25.362,282.908 24.971,283.391 23.674,284.994C18.612,291.247 2.64,310.254 1.63,347.653C0.431,392.052 0.82,400.28 0.833,401.331C0.84,401.883 0.397,402.336 -0.155,402.343L-0.167,402.343Z" style="fill:rgb(67,111,142);fill-rule:nonzero;"/>
            </g>
            <g transform="matrix(1,0,0,1,578.193,420.589)">
                <path d="M0,2L-76.386,2C-76.938,2 -77.386,1.553 -77.386,1C-77.386,0.447 -76.938,0 -76.386,0L0,0C0.553,0 1,0.447 1,1C1,1.553 0.553,2 0,2" style="fill:rgb(67,111,142);fill-rule:nonzero;"/>
            </g>
            <g transform="matrix(1,0,0,1,578.193,433.625)">
                <path d="M0,2L-76.386,2C-76.938,2 -77.386,1.553 -77.386,1C-77.386,0.447 -76.938,0 -76.386,0L0,0C0.553,0 1,0.447 1,1C1,1.553 0.553,2 0,2" style="fill:rgb(67,111,142);fill-rule:nonzero;"/>
            </g>
            <g transform="matrix(1,0,0,1,530.808,132.635)">
                <path d="M-0.389,312.189C-0.939,312.189 -1.387,311.745 -1.389,311.194L-1.522,289.019L-37.177,1.184C-37.245,0.636 -36.855,0.137 -36.308,0.069C-35.756,0 -35.26,0.39 -35.192,0.938L0.469,288.831C0.474,288.87 0.477,288.91 0.477,288.949L0.611,311.184C0.613,311.737 0.168,312.186 -0.385,312.189L-0.389,312.189Z" style="fill:rgb(67,111,142);fill-rule:nonzero;"/>
            </g>
            <g transform="matrix(1,0,0,1,555.591,132.638)">
                <path d="M0.309,312.186L0.305,312.186C-0.248,312.184 -0.693,311.734 -0.691,311.182L-0.523,288.947C-0.523,288.912 -0.521,288.877 -0.518,288.843L30.924,0.95C30.983,0.401 31.471,0 32.026,0.064C32.575,0.124 32.972,0.618 32.912,1.166L1.477,289.008L1.309,311.19C1.307,311.741 0.86,312.186 0.309,312.186" style="fill:rgb(67,111,142);fill-rule:nonzero;"/>
            </g>
            <g transform="matrix(1,0,0,1,512.031,286.11)">
                <path d="M-0.127,158.714C-0.678,158.714 -1.125,158.269 -1.127,157.718L-1.465,135.483L-4.779,1.042C-4.793,0.491 -4.356,0.032 -3.804,0.018C-3.259,0 -2.794,0.441 -2.78,0.994L0.535,135.454L0.873,157.71C0.875,158.263 0.429,158.712 -0.123,158.714L-0.127,158.714Z" style="fill:rgb(67,111,142);fill-rule:nonzero;"/>
            </g>
            <g transform="matrix(1,0,0,1,570.479,284.37)">
                <path d="M-1.416,160.454C-1.963,160.454 -2.409,160.014 -2.416,159.466L-2.363,137.231L4.769,0.98C4.798,0.428 5.242,0 5.82,0.033C6.371,0.063 6.795,0.533 6.767,1.085L-0.364,137.272L-0.416,159.442C-0.41,159.995 -0.853,160.447 -1.404,160.454L-1.416,160.454Z" style="fill:rgb(67,111,142);fill-rule:nonzero;"/>
            </g>
        </g>
        <g transform="matrix(0.979054,0,0,0.979054,25.0087,-0.0999356)">
            <g>
                <g transform="matrix(1,0,0,1,489.126,152.333)">
                    <path d="M0,-29.395C-8.104,-29.395 -14.697,-22.802 -14.697,-14.698C-14.697,-6.593 -8.104,-0 0,-0C8.104,-0 14.698,-6.593 14.698,-14.698C14.698,-22.802 8.104,-29.395 0,-29.395M0,2C-9.207,2 -16.697,-5.491 -16.697,-14.698C-16.697,-23.905 -9.207,-31.395 0,-31.395C9.207,-31.395 16.698,-23.905 16.698,-14.698C16.698,-5.491 9.207,2 0,2" style="fill:rgb(67,111,142);fill-rule:nonzero;"/>
                </g>
                <g transform="matrix(1,0,0,1,491.857,149.185)">
                    <path d="M0,-23.492C-0.35,-23.492 -0.702,-23.437 -1.045,-23.325L-10.372,-20.256C-11.466,-19.896 -12.289,-19.014 -12.572,-17.898L-14.653,-9.686C-14.961,-8.473 -14.572,-7.201 -13.639,-6.367L-7.026,-0.456C-6.156,0.322 -4.922,0.593 -3.807,0.247L5.299,-2.564C6.395,-2.902 7.232,-3.764 7.538,-4.869L9.581,-12.246C9.889,-13.358 9.609,-14.533 8.834,-15.388L2.482,-22.393C1.837,-23.105 0.93,-23.492 0,-23.492M-4.782,2.394C-6.084,2.394 -7.369,1.921 -8.359,1.035L-14.972,-4.875C-16.463,-6.208 -17.083,-8.24 -16.592,-10.178L-14.51,-18.389C-14.058,-20.172 -12.745,-21.58 -10.998,-22.156L-1.67,-25.224C0.333,-25.886 2.546,-25.301 3.964,-23.737L10.315,-16.732C11.554,-15.366 12,-13.489 11.508,-11.712L9.465,-4.336C8.977,-2.571 7.64,-1.194 5.889,-0.653L-3.217,2.158C-3.729,2.317 -4.257,2.394 -4.782,2.394" style="fill:rgb(67,111,142);fill-rule:nonzero;"/>
                </g>
                <g transform="matrix(1,0,0,1,489.331,145.206)">
                    <path d="M0,-17.869C-4.927,-17.869 -8.935,-13.861 -8.935,-8.934C-8.935,-4.008 -4.927,0 0,0C4.926,0 8.934,-4.008 8.934,-8.934C8.934,-13.861 4.926,-17.869 0,-17.869M0,2C-6.029,2 -10.935,-2.905 -10.935,-8.934C-10.935,-14.964 -6.029,-19.869 0,-19.869C6.029,-19.869 10.934,-14.964 10.934,-8.934C10.934,-2.905 6.029,2 0,2" style="fill:rgb(67,111,142);fill-rule:nonzero;"/>
                </g>
                <g transform="matrix(1,0,0,1,488.62,138.699)">
                    <path d="M0,-10.006C-2.759,-10.006 -5.003,-7.762 -5.003,-5.003C-5.003,-2.244 -2.759,0 0,0C2.759,0 5.003,-2.244 5.003,-5.003C5.003,-7.762 2.759,-10.006 0,-10.006M0,2C-3.861,2 -7.003,-1.141 -7.003,-5.003C-7.003,-8.864 -3.861,-12.006 0,-12.006C3.862,-12.006 7.003,-8.864 7.003,-5.003C7.003,-1.141 3.862,2 0,2" style="fill:rgb(67,111,142);fill-rule:nonzero;"/>
                </g>
            </g>
            <g id="S3-fill">
                <g transform="matrix(1.45595,0,0,1.45595,-335.816,-274.214)">
                    <circle cx="566.599" cy="282.872" r="10.693" style="fill:rgb(67,111,142);"/>
                </g>
                <g transform="matrix(1,0,0,1,491.857,149.185)">
                    <path d="M0,-23.492C-0.35,-23.492 -0.702,-23.437 -1.045,-23.325L-10.372,-20.256C-11.466,-19.896 -12.289,-19.014 -12.572,-17.898L-14.653,-9.686C-14.961,-8.473 -14.572,-7.201 -13.639,-6.367L-7.026,-0.456C-6.156,0.322 -4.922,0.593 -3.807,0.247L5.299,-2.564C6.395,-2.902 7.232,-3.764 7.538,-4.869L9.581,-12.246C9.889,-13.358 9.609,-14.533 8.834,-15.388L2.482,-22.393C1.837,-23.105 0.93,-23.492 0,-23.492M-4.782,2.394C-6.084,2.394 -7.369,1.921 -8.359,1.035L-14.972,-4.875C-16.463,-6.208 -17.083,-8.24 -16.592,-10.178L-14.51,-18.389C-14.058,-20.172 -12.745,-21.58 -10.998,-22.156L-1.67,-25.224C0.333,-25.886 2.546,-25.301 3.964,-23.737L10.315,-16.732C11.554,-15.366 12,-13.489 11.508,-11.712L9.465,-4.336C8.977,-2.571 7.64,-1.194 5.889,-0.653L-3.217,2.158C-3.729,2.317 -4.257,2.394 -4.782,2.394" style="fill:white;fill-rule:nonzero;"/>
                </g>
                <g transform="matrix(1,0,0,1,488.62,138.699)">
                    <path d="M0,-10.006C-2.759,-10.006 -5.003,-7.762 -5.003,-5.003C-5.003,-2.244 -2.759,0 0,0C2.759,0 5.003,-2.244 5.003,-5.003C5.003,-7.762 2.759,-10.006 0,-10.006M0,2C-3.861,2 -7.003,-1.141 -7.003,-5.003C-7.003,-8.864 -3.861,-12.006 0,-12.006C3.862,-12.006 7.003,-8.864 7.003,-5.003C7.003,-1.141 3.862,2 0,2" style="fill:white;fill-rule:nonzero;"/>
                </g>
            </g>
        </g>
        <g transform="matrix(0.979054,0,0,0.979054,25.0087,-0.0999356)">
            <g>
                <g transform="matrix(1,0,0,1,593.006,152.333)">
                    <path d="M0,-29.395C-8.104,-29.395 -14.698,-22.802 -14.698,-14.698C-14.698,-6.593 -8.104,-0 0,-0C8.104,-0 14.697,-6.593 14.697,-14.698C14.697,-22.802 8.104,-29.395 0,-29.395M0,2C-9.207,2 -16.698,-5.491 -16.698,-14.698C-16.698,-23.905 -9.207,-31.395 0,-31.395C9.207,-31.395 16.697,-23.905 16.697,-14.698C16.697,-5.491 9.207,2 0,2" style="fill:rgb(67,111,142);fill-rule:nonzero;"/>
                </g>
                <g transform="matrix(1,0,0,1,604.58,131.318)">
                    <path d="M0,12.247L0.01,12.247L0,12.247ZM-14.306,-5.624C-15.235,-5.624 -16.144,-5.237 -16.789,-4.525L-23.14,2.479C-23.915,3.335 -24.194,4.51 -23.887,5.622L-21.844,12.998C-21.538,14.103 -20.7,14.965 -19.604,15.304L-10.499,18.115C-9.384,18.459 -8.149,18.19 -7.28,17.412L-0.666,11.501C0.267,10.667 0.655,9.395 0.347,8.182L-1.734,-0.03C-2.018,-1.146 -2.84,-2.028 -3.934,-2.388L-13.261,-5.457C-13.604,-5.569 -13.956,-5.624 -14.306,-5.624M-9.522,20.262C-10.048,20.262 -10.576,20.184 -11.089,20.026L-20.194,17.215C-21.945,16.674 -23.282,15.297 -23.771,13.532L-25.814,6.156C-26.306,4.379 -25.86,2.502 -24.622,1.136L-18.271,-5.869C-16.852,-7.431 -14.643,-8.015 -12.636,-7.357L-3.309,-4.288C-1.562,-3.712 -0.248,-2.305 0.205,-0.522L2.286,7.69C2.777,9.628 2.157,11.66 0.667,12.993L0.666,12.993L-5.947,18.903C-6.937,19.789 -8.222,20.262 -9.522,20.262" style="fill:rgb(67,111,142);fill-rule:nonzero;"/>
                </g>
                <g transform="matrix(1,0,0,1,592.802,145.206)">
                    <path d="M0,-17.869C-4.927,-17.869 -8.935,-13.861 -8.935,-8.934C-8.935,-4.008 -4.927,0 0,0C4.926,0 8.934,-4.008 8.934,-8.934C8.934,-13.861 4.926,-17.869 0,-17.869M0,2C-6.029,2 -10.935,-2.905 -10.935,-8.934C-10.935,-14.964 -6.029,-19.869 0,-19.869C6.028,-19.869 10.934,-14.964 10.934,-8.934C10.934,-2.905 6.028,2 0,2" style="fill:rgb(67,111,142);fill-rule:nonzero;"/>
                </g>
                <g transform="matrix(1,0,0,1,593.512,138.699)">
                    <path d="M0,-10.006C-2.759,-10.006 -5.003,-7.762 -5.003,-5.003C-5.003,-2.244 -2.759,0 0,0C2.759,0 5.003,-2.244 5.003,-5.003C5.003,-7.762 2.759,-10.006 0,-10.006M0,2C-3.861,2 -7.003,-1.141 -7.003,-5.003C-7.003,-8.864 -3.861,-12.006 0,-12.006C3.861,-12.006 7.003,-8.864 7.003,-5.003C7.003,-1.141 3.861,2 0,2" style="fill:rgb(67,111,142);fill-rule:nonzero;"/>
                </g>
            </g>
            <g id="S4-fill">
                <g transform="matrix(1.45595,0,0,1.45595,-231.937,-274.214)">
                    <circle cx="566.599" cy="282.872" r="10.693" style="fill:rgb(67,111,142);"/>
                </g>
                <g transform="matrix(1,0,0,1,604.58,131.318)">
                    <path d="M0,12.247L0.01,12.247L0,12.247ZM-14.306,-5.624C-15.235,-5.624 -16.144,-5.237 -16.789,-4.525L-23.14,2.479C-23.915,3.335 -24.194,4.51 -23.887,5.622L-21.844,12.998C-21.538,14.103 -20.7,14.965 -19.604,15.304L-10.499,18.115C-9.384,18.459 -8.149,18.19 -7.28,17.412L-0.666,11.501C0.267,10.667 0.655,9.395 0.347,8.182L-1.734,-0.03C-2.018,-1.146 -2.84,-2.028 -3.934,-2.388L-13.261,-5.457C-13.604,-5.569 -13.956,-5.624 -14.306,-5.624M-9.522,20.262C-10.048,20.262 -10.576,20.184 -11.089,20.026L-20.194,17.215C-21.945,16.674 -23.282,15.297 -23.771,13.532L-25.814,6.156C-26.306,4.379 -25.86,2.502 -24.622,1.136L-18.271,-5.869C-16.852,-7.431 -14.643,-8.015 -12.636,-7.357L-3.309,-4.288C-1.562,-3.712 -0.248,-2.305 0.205,-0.522L2.286,7.69C2.777,9.628 2.157,11.66 0.667,12.993L0.666,12.993L-5.947,18.903C-6.937,19.789 -8.222,20.262 -9.522,20.262" style="fill:white;fill-rule:nonzero;"/>
                </g>
                <g transform="matrix(1,0,0,1,593.512,138.699)">
                    <path d="M0,-10.006C-2.759,-10.006 -5.003,-7.762 -5.003,-5.003C-5.003,-2.244 -2.759,0 0,0C2.759,0 5.003,-2.244 5.003,-5.003C5.003,-7.762 2.759,-10.006 0,-10.006M0,2C-3.861,2 -7.003,-1.141 -7.003,-5.003C-7.003,-8.864 -3.861,-12.006 0,-12.006C3.861,-12.006 7.003,-8.864 7.003,-5.003C7.003,-1.141 3.861,2 0,2" style="fill:white;fill-rule:nonzero;"/>
                </g>
            </g>
        </g>
        <g transform="matrix(0.979054,0,0,0.979054,25.0087,-0.0999356)">
            <g>
                <g transform="matrix(1,0,0,1,502.958,302.859)">
                    <path d="M0,-29.396C-8.104,-29.396 -14.698,-22.803 -14.698,-14.699C-14.698,-6.594 -8.104,0 0,0C8.104,0 14.697,-6.594 14.697,-14.699C14.697,-22.803 8.104,-29.396 0,-29.396M0,2C-9.207,2 -16.698,-5.492 -16.698,-14.699C-16.698,-23.906 -9.207,-31.396 0,-31.396C9.207,-31.396 16.697,-23.906 16.697,-14.699C16.697,-5.492 9.207,2 0,2" style="fill:rgb(67,111,142);fill-rule:nonzero;"/>
                </g>
                <g transform="matrix(1,0,0,1,490.92,287.628)">
                    <path d="M0,1.209L3.939,9.156C4.458,10.202 5.502,10.911 6.666,11.006L16.163,11.785C17.312,11.88 18.405,11.391 19.1,10.479L23.74,4.392C24.44,3.474 24.618,2.279 24.216,1.196L20.927,-7.668C20.468,-8.907 19.318,-9.762 18,-9.845L8.2,-10.467C7.048,-10.548 5.96,-10.027 5.281,-9.097L0.293,-2.249C-0.443,-1.237 -0.556,0.088 0,1.209M16.444,13.797C16.296,13.797 16.148,13.791 16,13.779L6.502,13C4.645,12.848 2.976,11.716 2.147,10.045L-1.792,2.098C-2.68,0.307 -2.5,-1.811 -1.323,-3.427L3.665,-10.274C4.749,-11.762 6.495,-12.588 8.327,-12.463L18.126,-11.841C20.233,-11.708 22.068,-10.343 22.802,-8.363L26.091,0.501C26.733,2.23 26.448,4.138 25.331,5.605L20.69,11.691C19.669,13.029 18.107,13.797 16.444,13.797" style="fill:rgb(67,111,142);fill-rule:nonzero;"/>
                </g>
                <g transform="matrix(1,0,0,1,503.328,296.621)">
                    <path d="M0,-17.868C-4.927,-17.868 -8.935,-13.86 -8.935,-8.933C-8.935,-4.008 -4.927,0 0,0C4.926,0 8.934,-4.008 8.934,-8.933C8.934,-13.86 4.926,-17.868 0,-17.868M0,2C-6.029,2 -10.935,-2.905 -10.935,-8.933C-10.935,-14.963 -6.029,-19.868 0,-19.868C6.029,-19.868 10.934,-14.963 10.934,-8.933C10.934,-2.905 6.029,2 0,2" style="fill:rgb(67,111,142);fill-rule:nonzero;"/>
                </g>
                <g transform="matrix(1,0,0,1,502.394,290.825)">
                    <path d="M0,-10.007C-2.759,-10.007 -5.003,-7.763 -5.003,-5.004C-5.003,-2.245 -2.759,0 0,0C2.759,0 5.003,-2.245 5.003,-5.004C5.003,-7.763 2.759,-10.007 0,-10.007M0,2C-3.861,2 -7.003,-1.142 -7.003,-5.004C-7.003,-8.865 -3.861,-12.007 0,-12.007C3.862,-12.007 7.003,-8.865 7.003,-5.004C7.003,-1.142 3.862,2 0,2" style="fill:rgb(67,111,142);fill-rule:nonzero;"/>
                </g>
            </g>
            <g id="S2-fill">
                <g transform="matrix(1.45595,0,0,1.45595,-321.615,-124.162)">
                    <circle cx="566.599" cy="282.872" r="10.693" style="fill:rgb(67,111,142);"/>
                </g>
                <g transform="matrix(1,0,0,1,490.92,287.628)">
                    <path d="M0,1.209L3.939,9.156C4.458,10.202 5.502,10.911 6.666,11.006L16.163,11.785C17.312,11.88 18.405,11.391 19.1,10.479L23.74,4.392C24.44,3.474 24.618,2.279 24.216,1.196L20.927,-7.668C20.468,-8.907 19.318,-9.762 18,-9.845L8.2,-10.467C7.048,-10.548 5.96,-10.027 5.281,-9.097L0.293,-2.249C-0.443,-1.237 -0.556,0.088 0,1.209M16.444,13.797C16.296,13.797 16.148,13.791 16,13.779L6.502,13C4.645,12.848 2.976,11.716 2.147,10.045L-1.792,2.098C-2.68,0.307 -2.5,-1.811 -1.323,-3.427L3.665,-10.274C4.749,-11.762 6.495,-12.588 8.327,-12.463L18.126,-11.841C20.233,-11.708 22.068,-10.343 22.802,-8.363L26.091,0.501C26.733,2.23 26.448,4.138 25.331,5.605L20.69,11.691C19.669,13.029 18.107,13.797 16.444,13.797" style="fill:white;fill-rule:nonzero;"/>
                </g>
                <g transform="matrix(1,0,0,1,502.394,290.825)">
                    <path d="M0,-10.007C-2.759,-10.007 -5.003,-7.763 -5.003,-5.004C-5.003,-2.245 -2.759,0 0,0C2.759,0 5.003,-2.245 5.003,-5.004C5.003,-7.763 2.759,-10.007 0,-10.007M0,2C-3.861,2 -7.003,-1.142 -7.003,-5.004C-7.003,-8.865 -3.861,-12.007 0,-12.007C3.862,-12.007 7.003,-8.865 7.003,-5.004C7.003,-1.142 3.862,2 0,2" style="fill:white;fill-rule:nonzero;"/>
                </g>
            </g>
        </g>
        <g transform="matrix(0.979054,0,0,0.979054,25.0087,-0.0999356)">
            <g>
                <g transform="matrix(1,0,0,1,580.928,302.859)">
                    <path d="M0,-29.396C-8.104,-29.396 -14.697,-22.803 -14.697,-14.699C-14.697,-6.594 -8.104,0 0,0C8.104,0 14.698,-6.594 14.698,-14.699C14.698,-22.803 8.104,-29.396 0,-29.396M0,2C-9.207,2 -16.697,-5.492 -16.697,-14.699C-16.697,-23.906 -9.207,-31.396 0,-31.396C9.207,-31.396 16.698,-23.906 16.698,-14.699C16.698,-5.492 9.207,2 0,2" style="fill:rgb(67,111,142);fill-rule:nonzero;"/>
                </g>
                <g transform="matrix(1,0,0,1,576.873,299.317)">
                    <path d="M0,-22.163C-1.068,-22.163 -2.065,-21.658 -2.701,-20.786L-7.689,-13.938C-8.427,-12.927 -8.539,-11.601 -7.983,-10.48L-7.982,-10.48L-4.044,-2.533C-3.525,-1.487 -2.48,-0.778 -1.318,-0.684L8.181,0.096C9.325,0.19 10.421,-0.3 11.117,-1.211L15.757,-7.298C16.457,-8.216 16.635,-9.41 16.233,-10.493L12.944,-19.357C12.484,-20.597 11.336,-21.451 10.017,-21.534L0.217,-22.156C0.145,-22.161 0.072,-22.163 0,-22.163M8.461,2.108C8.313,2.108 8.165,2.102 8.017,2.09L-1.481,1.311C-3.339,1.158 -5.008,0.026 -5.836,-1.644L-9.775,-9.592C-10.663,-11.383 -10.483,-13.499 -9.307,-15.116L-4.318,-21.964C-3.233,-23.451 -1.49,-24.271 0.344,-24.152L10.144,-23.53C12.25,-23.397 14.085,-22.032 14.819,-20.053L18.108,-11.188C18.75,-9.459 18.465,-7.551 17.347,-6.085L12.707,0.002C11.687,1.34 10.123,2.108 8.461,2.108" style="fill:rgb(67,111,142);fill-rule:nonzero;"/>
                </g>
                <g transform="matrix(1,0,0,1,581.297,296.621)">
                    <path d="M0,-17.868C-4.927,-17.868 -8.935,-13.86 -8.935,-8.933C-8.935,-4.008 -4.927,0 0,0C4.927,0 8.935,-4.008 8.935,-8.933C8.935,-13.86 4.927,-17.868 0,-17.868M0,2C-6.029,2 -10.935,-2.905 -10.935,-8.933C-10.935,-14.963 -6.029,-19.868 0,-19.868C6.029,-19.868 10.935,-14.963 10.935,-8.933C10.935,-2.905 6.029,2 0,2" style="fill:rgb(67,111,142);fill-rule:nonzero;"/>
                </g>
                <g transform="matrix(1,0,0,1,582.23,290.825)">
                    <path d="M0,-10.007C-2.759,-10.007 -5.003,-7.763 -5.003,-5.004C-5.003,-2.245 -2.759,0 0,0C2.759,0 5.004,-2.245 5.004,-5.004C5.004,-7.763 2.759,-10.007 0,-10.007M0,2C-3.861,2 -7.003,-1.142 -7.003,-5.004C-7.003,-8.865 -3.861,-12.007 0,-12.007C3.862,-12.007 7.004,-8.865 7.004,-5.004C7.004,-1.142 3.862,2 0,2" style="fill:rgb(67,111,142);fill-rule:nonzero;"/>
                </g>
            </g>
            <g id="S5-fill">
                <g transform="matrix(1.45595,0,0,1.45595,-243.949,-123.592)">
                    <circle cx="566.599" cy="282.872" r="10.693" style="fill:rgb(67,111,142);"/>
                </g>
                <g transform="matrix(1,0,0,1,576.873,299.317)">
                    <path d="M0,-22.163C-1.068,-22.163 -2.065,-21.658 -2.701,-20.786L-7.689,-13.938C-8.427,-12.927 -8.539,-11.601 -7.983,-10.48L-7.982,-10.48L-4.044,-2.533C-3.525,-1.487 -2.48,-0.778 -1.318,-0.684L8.181,0.096C9.325,0.19 10.421,-0.3 11.117,-1.211L15.757,-7.298C16.457,-8.216 16.635,-9.41 16.233,-10.493L12.944,-19.357C12.484,-20.597 11.336,-21.451 10.017,-21.534L0.217,-22.156C0.145,-22.161 0.072,-22.163 0,-22.163M8.461,2.108C8.313,2.108 8.165,2.102 8.017,2.09L-1.481,1.311C-3.339,1.158 -5.008,0.026 -5.836,-1.644L-9.775,-9.592C-10.663,-11.383 -10.483,-13.499 -9.307,-15.116L-4.318,-21.964C-3.233,-23.451 -1.49,-24.271 0.344,-24.152L10.144,-23.53C12.25,-23.397 14.085,-22.032 14.819,-20.053L18.108,-11.188C18.75,-9.459 18.465,-7.551 17.347,-6.085L12.707,0.002C11.687,1.34 10.123,2.108 8.461,2.108" style="fill:white;fill-rule:nonzero;"/>
                </g>
                <g transform="matrix(1,0,0,1,582.23,290.825)">
                    <path d="M0,-10.007C-2.759,-10.007 -5.003,-7.763 -5.003,-5.004C-5.003,-2.245 -2.759,0 0,0C2.759,0 5.004,-2.245 5.004,-5.004C5.004,-7.763 2.759,-10.007 0,-10.007M0,2C-3.861,2 -7.003,-1.142 -7.003,-5.004C-7.003,-8.865 -3.861,-12.007 0,-12.007C3.862,-12.007 7.004,-8.865 7.004,-5.004C7.004,-1.142 3.862,2 0,2" style="fill:white;fill-rule:nonzero;"/>
                </g>
            </g>
        </g>
        <g id="Tunings" transform="matrix(0.802631,0,0,0.802631,321.591,12.804)">
            <g id="fDFAD" transform="matrix(1.68381,0,0,1.68381,-94.9726,201.386)">
                <g transform="matrix(0.538335,0,0,0.538335,268.573,33.2263)">
                    <g id="fDFAD-S5">
                        <g transform="matrix(72,0,0,72,57.4548,118.091)">
                            <path d="M0.446,-0.511C0.446,-0.414 0.432,-0.325 0.406,-0.245C0.379,-0.166 0.341,-0.105 0.293,-0.063C0.245,-0.021 0.189,-0 0.125,-0L0.032,-0L0.183,-0.714L0.289,-0.714C0.339,-0.714 0.378,-0.697 0.405,-0.663C0.432,-0.628 0.446,-0.578 0.446,-0.511ZM0.135,-0.046C0.184,-0.046 0.228,-0.065 0.267,-0.103C0.306,-0.14 0.337,-0.196 0.36,-0.271C0.383,-0.346 0.395,-0.426 0.395,-0.511C0.395,-0.615 0.357,-0.667 0.282,-0.667L0.222,-0.667L0.09,-0.046L0.135,-0.046Z" style="fill:rgb(226,92,27);fill-rule:nonzero;"/>
                        </g>
                    </g>
                </g>
                <g transform="matrix(0.538335,0,0,0.538335,282.605,-80.4394)">
                    <g id="fDFAD-S4">
                        <g transform="matrix(72,0,0,72,57.4548,118.091)">
                            <path d="M0.271,-0L0.271,-0.259L0.121,-0.259L0.013,-0L-0.038,-0L0.258,-0.717L0.318,-0.717L0.318,-0L0.271,-0ZM0.271,-0.307L0.271,-0.488L0.274,-0.661C0.269,-0.644 0.261,-0.619 0.249,-0.587C0.236,-0.554 0.2,-0.461 0.138,-0.307L0.271,-0.307Z" style="fill:rgb(226,92,27);fill-rule:nonzero;"/>
                        </g>
                    </g>
                </g>
                <g transform="matrix(0.538335,0,0,0.538335,87.5452,-80.4394)">
                    <g id="fDFAD-S3">
                        <g transform="matrix(72,0,0,72,57.4548,118.091)">
                            <path d="M0.081,-0L0.032,-0L0.183,-0.714L0.417,-0.714L0.407,-0.667L0.222,-0.667L0.159,-0.367L0.333,-0.367L0.323,-0.321L0.149,-0.321L0.081,-0Z" style="fill:rgb(226,92,27);fill-rule:nonzero;"/>
                        </g>
                        <g transform="matrix(72,0,0,72,80.4822,118.091)">
                            <path d="M0.026,-0.228L0.035,-0.272L0.109,-0.272L0.171,-0.467L0.097,-0.467L0.106,-0.509L0.185,-0.509L0.248,-0.714L0.288,-0.714L0.224,-0.509L0.323,-0.509L0.388,-0.714L0.425,-0.714L0.362,-0.509L0.434,-0.509L0.425,-0.467L0.348,-0.467L0.286,-0.272L0.363,-0.272L0.354,-0.228L0.273,-0.228L0.201,-0L0.161,-0L0.234,-0.228L0.135,-0.228L0.064,-0L0.025,-0L0.096,-0.228L0.026,-0.228ZM0.149,-0.272L0.247,-0.272L0.31,-0.467L0.21,-0.467L0.149,-0.272Z" style="fill:rgb(226,92,27);fill-rule:nonzero;"/>
                        </g>
                    </g>
                </g>
                <g transform="matrix(0.538335,0,0,0.538335,113.199,-2.2228)">
                    <g id="fDFAD-S2">
                        <g transform="matrix(72,0,0,72,57.4548,118.091)">
                            <path d="M0.446,-0.511C0.446,-0.414 0.432,-0.325 0.406,-0.245C0.379,-0.166 0.341,-0.105 0.293,-0.063C0.245,-0.021 0.189,-0 0.125,-0L0.032,-0L0.183,-0.714L0.289,-0.714C0.339,-0.714 0.378,-0.697 0.405,-0.663C0.432,-0.628 0.446,-0.578 0.446,-0.511ZM0.135,-0.046C0.184,-0.046 0.228,-0.065 0.267,-0.103C0.306,-0.14 0.337,-0.196 0.36,-0.271C0.383,-0.346 0.395,-0.426 0.395,-0.511C0.395,-0.615 0.357,-0.667 0.282,-0.667L0.222,-0.667L0.09,-0.046L0.135,-0.046Z" style="fill:rgb(226,92,27);fill-rule:nonzero;"/>
                        </g>
                    </g>
                </g>
                <g transform="matrix(0.538335,0,0,0.538335,50.1893,56.6105)">
                    <g id="fDFAD-S1">
                        <g transform="matrix(72,0,0,72,57.4548,118.091)">
                            <path d="M0.081,-0L0.032,-0L0.183,-0.714L0.417,-0.714L0.407,-0.667L0.222,-0.667L0.159,-0.367L0.333,-0.367L0.323,-0.321L0.149,-0.321L0.081,-0Z" style="fill:rgb(226,92,27);fill-rule:nonzero;"/>
                        </g>
                        <g transform="matrix(72,0,0,72,80.4822,118.091)">
                            <path d="M0.026,-0.228L0.035,-0.272L0.109,-0.272L0.171,-0.467L0.097,-0.467L0.106,-0.509L0.185,-0.509L0.248,-0.714L0.288,-0.714L0.224,-0.509L0.323,-0.509L0.388,-0.714L0.425,-0.714L0.362,-0.509L0.434,-0.509L0.425,-0.467L0.348,-0.467L0.286,-0.272L0.363,-0.272L0.354,-0.228L0.273,-0.228L0.201,-0L0.161,-0L0.234,-0.228L0.135,-0.228L0.064,-0L0.025,-0L0.096,-0.228L0.026,-0.228ZM0.149,-0.272L0.247,-0.272L0.31,-0.467L0.21,-0.467L0.149,-0.272Z" style="fill:rgb(226,92,27);fill-rule:nonzero;"/>
                        </g>
                    </g>
                </g>
            </g>
            <g id="gCGBD" transform="matrix(1.68381,0,0,1.68381,-94.9726,201.386)">
                <g transform="matrix(0.538335,0,0,0.538335,268.573,33.2263)">
                    <g id="gCGBD-S5">
                        <g transform="matrix(72,0,0,72,57.4548,118.091)">
                            <path d="M0.446,-0.511C0.446,-0.414 0.432,-0.325 0.406,-0.245C0.379,-0.166 0.341,-0.105 0.293,-0.063C0.245,-0.021 0.189,-0 0.125,-0L0.032,-0L0.183,-0.714L0.289,-0.714C0.339,-0.714 0.378,-0.697 0.405,-0.663C0.432,-0.628 0.446,-0.578 0.446,-0.511ZM0.135,-0.046C0.184,-0.046 0.228,-0.065 0.267,-0.103C0.306,-0.14 0.337,-0.196 0.36,-0.271C0.383,-0.346 0.395,-0.426 0.395,-0.511C0.395,-0.615 0.357,-0.667 0.282,-0.667L0.222,-0.667L0.09,-0.046L0.135,-0.046Z" style="fill:rgb(226,92,27);fill-rule:nonzero;"/>
                        </g>
                    </g>
                </g>
                <g transform="matrix(0.538335,0,0,0.538335,282.605,-80.4394)">
                    <g id="gCGBD-S4">
                        <g transform="matrix(72,0,0,72,57.4548,118.091)">
                            <path d="M0.183,-0.714L0.293,-0.714C0.335,-0.714 0.369,-0.702 0.395,-0.677C0.42,-0.653 0.433,-0.62 0.433,-0.58C0.433,-0.526 0.421,-0.48 0.397,-0.444C0.372,-0.407 0.339,-0.385 0.297,-0.377L0.296,-0.374C0.32,-0.368 0.339,-0.353 0.354,-0.33C0.369,-0.307 0.376,-0.28 0.376,-0.249C0.376,-0.2 0.368,-0.156 0.351,-0.119C0.334,-0.081 0.31,-0.052 0.279,-0.031C0.247,-0.01 0.209,-0 0.165,-0L0.032,-0L0.183,-0.714ZM0.164,-0.397L0.236,-0.397C0.265,-0.397 0.291,-0.404 0.313,-0.419C0.335,-0.434 0.352,-0.455 0.365,-0.483C0.377,-0.51 0.383,-0.54 0.383,-0.574C0.383,-0.606 0.375,-0.629 0.358,-0.644C0.341,-0.659 0.316,-0.667 0.282,-0.667L0.222,-0.667L0.164,-0.397ZM0.155,-0.351L0.09,-0.046L0.167,-0.046C0.217,-0.046 0.256,-0.063 0.284,-0.098C0.312,-0.133 0.326,-0.181 0.326,-0.241C0.326,-0.275 0.318,-0.302 0.301,-0.322C0.285,-0.341 0.262,-0.351 0.232,-0.351L0.155,-0.351Z" style="fill:rgb(226,92,27);fill-rule:nonzero;"/>
                        </g>
                    </g>
                </g>
                <g transform="matrix(0.538335,0,0,0.538335,87.5452,-80.4394)">
                    <g id="gCGBD-S3">
                        <g transform="matrix(72,0,0,72,57.4548,118.091)">
                            <path d="M0.315,-0.362L0.459,-0.362L0.385,-0.016C0.34,0.001 0.293,0.01 0.244,0.01C0.125,0.01 0.066,-0.065 0.066,-0.214C0.066,-0.274 0.074,-0.337 0.091,-0.404C0.107,-0.471 0.13,-0.529 0.158,-0.578C0.187,-0.628 0.219,-0.664 0.256,-0.689C0.292,-0.713 0.331,-0.725 0.373,-0.725C0.428,-0.725 0.477,-0.71 0.52,-0.679L0.489,-0.636C0.467,-0.653 0.446,-0.664 0.428,-0.669C0.41,-0.675 0.39,-0.678 0.37,-0.678C0.334,-0.678 0.301,-0.667 0.27,-0.643C0.24,-0.62 0.213,-0.586 0.19,-0.541C0.166,-0.497 0.148,-0.445 0.134,-0.385C0.121,-0.324 0.114,-0.267 0.114,-0.211C0.114,-0.149 0.125,-0.104 0.147,-0.076C0.17,-0.049 0.203,-0.035 0.249,-0.035C0.282,-0.035 0.313,-0.04 0.343,-0.049L0.4,-0.316L0.305,-0.316L0.315,-0.362Z" style="fill:rgb(226,92,27);fill-rule:nonzero;"/>
                        </g>
                    </g>
                </g>
                <g transform="matrix(0.538335,0,0,0.538335,113.199,-2.2228)">
                    <g id="gCGBD-S2">
                        <g transform="matrix(72,0,0,72,57.4548,118.091)">
                            <path d="M0.361,-0.678C0.319,-0.678 0.279,-0.657 0.241,-0.615C0.203,-0.573 0.173,-0.515 0.149,-0.442C0.126,-0.368 0.114,-0.297 0.114,-0.228C0.114,-0.162 0.122,-0.113 0.139,-0.082C0.156,-0.051 0.184,-0.035 0.223,-0.035C0.248,-0.035 0.276,-0.042 0.307,-0.054L0.307,-0.008C0.277,0.004 0.246,0.01 0.216,0.01C0.166,0.01 0.129,-0.009 0.104,-0.047C0.078,-0.084 0.066,-0.142 0.066,-0.219C0.066,-0.303 0.08,-0.385 0.108,-0.466C0.135,-0.546 0.172,-0.61 0.218,-0.656C0.264,-0.702 0.313,-0.725 0.366,-0.725C0.406,-0.725 0.438,-0.715 0.462,-0.695L0.432,-0.653C0.413,-0.67 0.389,-0.678 0.361,-0.678Z" style="fill:rgb(226,92,27);fill-rule:nonzero;"/>
                        </g>
                    </g>
                </g>
                <g transform="matrix(0.538335,0,0,0.538335,50.1893,56.6105)">
                    <g id="gCGBD-S1">
                        <g transform="matrix(72,0,0,72,57.4548,118.091)">
                            <path d="M0.315,-0.362L0.459,-0.362L0.385,-0.016C0.34,0.001 0.293,0.01 0.244,0.01C0.125,0.01 0.066,-0.065 0.066,-0.214C0.066,-0.274 0.074,-0.337 0.091,-0.404C0.107,-0.471 0.13,-0.529 0.158,-0.578C0.187,-0.628 0.219,-0.664 0.256,-0.689C0.292,-0.713 0.331,-0.725 0.373,-0.725C0.428,-0.725 0.477,-0.71 0.52,-0.679L0.489,-0.636C0.467,-0.653 0.446,-0.664 0.428,-0.669C0.41,-0.675 0.39,-0.678 0.37,-0.678C0.334,-0.678 0.301,-0.667 0.27,-0.643C0.24,-0.62 0.213,-0.586 0.19,-0.541C0.166,-0.497 0.148,-0.445 0.134,-0.385C0.121,-0.324 0.114,-0.267 0.114,-0.211C0.114,-0.149 0.125,-0.104 0.147,-0.076C0.17,-0.049 0.203,-0.035 0.249,-0.035C0.282,-0.035 0.313,-0.04 0.343,-0.049L0.4,-0.316L0.305,-0.316L0.315,-0.362Z" style="fill:rgb(226,92,27);fill-rule:nonzero;"/>
                        </g>
                    </g>
                </g>
            </g>
            <g id="gDGCD" transform="matrix(1.68381,0,0,1.68381,-94.9726,201.386)">
                <g transform="matrix(0.538335,0,0,0.538335,268.573,33.2263)">
                    <g id="gDGCD-S5">
                        <g transform="matrix(72,0,0,72,57.4548,118.091)">
                            <path d="M0.446,-0.511C0.446,-0.414 0.432,-0.325 0.406,-0.245C0.379,-0.166 0.341,-0.105 0.293,-0.063C0.245,-0.021 0.189,-0 0.125,-0L0.032,-0L0.183,-0.714L0.289,-0.714C0.339,-0.714 0.378,-0.697 0.405,-0.663C0.432,-0.628 0.446,-0.578 0.446,-0.511ZM0.135,-0.046C0.184,-0.046 0.228,-0.065 0.267,-0.103C0.306,-0.14 0.337,-0.196 0.36,-0.271C0.383,-0.346 0.395,-0.426 0.395,-0.511C0.395,-0.615 0.357,-0.667 0.282,-0.667L0.222,-0.667L0.09,-0.046L0.135,-0.046Z" style="fill:rgb(226,92,27);fill-rule:nonzero;"/>
                        </g>
                    </g>
                </g>
                <g transform="matrix(0.538335,0,0,0.538335,282.605,-80.4394)">
                    <g id="gDGCD-S4">
                        <g transform="matrix(72,0,0,72,57.4548,118.091)">
                            <path d="M0.361,-0.678C0.319,-0.678 0.279,-0.657 0.241,-0.615C0.203,-0.573 0.173,-0.515 0.149,-0.442C0.126,-0.368 0.114,-0.297 0.114,-0.228C0.114,-0.162 0.122,-0.113 0.139,-0.082C0.156,-0.051 0.184,-0.035 0.223,-0.035C0.248,-0.035 0.276,-0.042 0.307,-0.054L0.307,-0.008C0.277,0.004 0.246,0.01 0.216,0.01C0.166,0.01 0.129,-0.009 0.104,-0.047C0.078,-0.084 0.066,-0.142 0.066,-0.219C0.066,-0.303 0.08,-0.385 0.108,-0.466C0.135,-0.546 0.172,-0.61 0.218,-0.656C0.264,-0.702 0.313,-0.725 0.366,-0.725C0.406,-0.725 0.438,-0.715 0.462,-0.695L0.432,-0.653C0.413,-0.67 0.389,-0.678 0.361,-0.678Z" style="fill:rgb(226,92,27);fill-rule:nonzero;"/>
                        </g>
                    </g>
                </g>
                <g transform="matrix(0.538335,0,0,0.538335,87.5452,-80.4394)">
                    <g id="gDGCD-S3">
                        <g transform="matrix(72,0,0,72,57.4548,118.091)">
                            <path d="M0.315,-0.362L0.459,-0.362L0.385,-0.016C0.34,0.001 0.293,0.01 0.244,0.01C0.125,0.01 0.066,-0.065 0.066,-0.214C0.066,-0.274 0.074,-0.337 0.091,-0.404C0.107,-0.471 0.13,-0.529 0.158,-0.578C0.187,-0.628 0.219,-0.664 0.256,-0.689C0.292,-0.713 0.331,-0.725 0.373,-0.725C0.428,-0.725 0.477,-0.71 0.52,-0.679L0.489,-0.636C0.467,-0.653 0.446,-0.664 0.428,-0.669C0.41,-0.675 0.39,-0.678 0.37,-0.678C0.334,-0.678 0.301,-0.667 0.27,-0.643C0.24,-0.62 0.213,-0.586 0.19,-0.541C0.166,-0.497 0.148,-0.445 0.134,-0.385C0.121,-0.324 0.114,-0.267 0.114,-0.211C0.114,-0.149 0.125,-0.104 0.147,-0.076C0.17,-0.049 0.203,-0.035 0.249,-0.035C0.282,-0.035 0.313,-0.04 0.343,-0.049L0.4,-0.316L0.305,-0.316L0.315,-0.362Z" style="fill:rgb(226,92,27);fill-rule:nonzero;"/>
                        </g>
                    </g>
                </g>
                <g transform="matrix(0.538335,0,0,0.538335,113.199,-2.2228)">
                    <g id="gDGCD-S2">
                        <g transform="matrix(72,0,0,72,57.4548,118.091)">
                            <path d="M0.446,-0.511C0.446,-0.414 0.432,-0.325 0.406,-0.245C0.379,-0.166 0.341,-0.105 0.293,-0.063C0.245,-0.021 0.189,-0 0.125,-0L0.032,-0L0.183,-0.714L0.289,-0.714C0.339,-0.714 0.378,-0.697 0.405,-0.663C0.432,-0.628 0.446,-0.578 0.446,-0.511ZM0.135,-0.046C0.184,-0.046 0.228,-0.065 0.267,-0.103C0.306,-0.14 0.337,-0.196 0.36,-0.271C0.383,-0.346 0.395,-0.426 0.395,-0.511C0.395,-0.615 0.357,-0.667 0.282,-0.667L0.222,-0.667L0.09,-0.046L0.135,-0.046Z" style="fill:rgb(226,92,27);fill-rule:nonzero;"/>
                        </g>
                    </g>
                </g>
                <g transform="matrix(0.538335,0,0,0.538335,50.1893,56.6105)">
                    <g id="gDGCD-S1">
                        <g transform="matrix(72,0,0,72,57.4548,118.091)">
                            <path d="M0.315,-0.362L0.459,-0.362L0.385,-0.016C0.34,0.001 0.293,0.01 0.244,0.01C0.125,0.01 0.066,-0.065 0.066,-0.214C0.066,-0.274 0.074,-0.337 0.091,-0.404C0.107,-0.471 0.13,-0.529 0.158,-0.578C0.187,-0.628 0.219,-0.664 0.256,-0.689C0.292,-0.713 0.331,-0.725 0.373,-0.725C0.428,-0.725 0.477,-0.71 0.52,-0.679L0.489,-0.636C0.467,-0.653 0.446,-0.664 0.428,-0.669C0.41,-0.675 0.39,-0.678 0.37,-0.678C0.334,-0.678 0.301,-0.667 0.27,-0.643C0.24,-0.62 0.213,-0.586 0.19,-0.541C0.166,-0.497 0.148,-0.445 0.134,-0.385C0.121,-0.324 0.114,-0.267 0.114,-0.211C0.114,-0.149 0.125,-0.104 0.147,-0.076C0.17,-0.049 0.203,-0.035 0.249,-0.035C0.282,-0.035 0.313,-0.04 0.343,-0.049L0.4,-0.316L0.305,-0.316L0.315,-0.362Z" style="fill:rgb(226,92,27);fill-rule:nonzero;"/>
                        </g>
                    </g>
                </g>
            </g>
            <g id="gCGCD" transform="matrix(1.68381,0,0,1.68381,-94.9726,201.386)">
                <g transform="matrix(0.538335,0,0,0.538335,268.573,33.2263)">
                    <g id="gCGCD-S5">
                        <g transform="matrix(72,0,0,72,57.4548,118.091)">
                            <path d="M0.446,-0.511C0.446,-0.414 0.432,-0.325 0.406,-0.245C0.379,-0.166 0.341,-0.105 0.293,-0.063C0.245,-0.021 0.189,-0 0.125,-0L0.032,-0L0.183,-0.714L0.289,-0.714C0.339,-0.714 0.378,-0.697 0.405,-0.663C0.432,-0.628 0.446,-0.578 0.446,-0.511ZM0.135,-0.046C0.184,-0.046 0.228,-0.065 0.267,-0.103C0.306,-0.14 0.337,-0.196 0.36,-0.271C0.383,-0.346 0.395,-0.426 0.395,-0.511C0.395,-0.615 0.357,-0.667 0.282,-0.667L0.222,-0.667L0.09,-0.046L0.135,-0.046Z" style="fill:rgb(226,92,27);fill-rule:nonzero;"/>
                        </g>
                    </g>
                </g>
                <g transform="matrix(0.538335,0,0,0.538335,282.605,-80.4394)">
                    <g id="gCGCD-S4">
                        <g transform="matrix(72,0,0,72,57.4548,118.091)">
                            <path d="M0.361,-0.678C0.319,-0.678 0.279,-0.657 0.241,-0.615C0.203,-0.573 0.173,-0.515 0.149,-0.442C0.126,-0.368 0.114,-0.297 0.114,-0.228C0.114,-0.162 0.122,-0.113 0.139,-0.082C0.156,-0.051 0.184,-0.035 0.223,-0.035C0.248,-0.035 0.276,-0.042 0.307,-0.054L0.307,-0.008C0.277,0.004 0.246,0.01 0.216,0.01C0.166,0.01 0.129,-0.009 0.104,-0.047C0.078,-0.084 0.066,-0.142 0.066,-0.219C0.066,-0.303 0.08,-0.385 0.108,-0.466C0.135,-0.546 0.172,-0.61 0.218,-0.656C0.264,-0.702 0.313,-0.725 0.366,-0.725C0.406,-0.725 0.438,-0.715 0.462,-0.695L0.432,-0.653C0.413,-0.67 0.389,-0.678 0.361,-0.678Z" style="fill:rgb(226,92,27);fill-rule:nonzero;"/>
                        </g>
                    </g>
                </g>
                <g transform="matrix(0.538335,0,0,0.538335,87.5452,-80.4394)">
                    <g id="gCGCD-S3">
                        <g transform="matrix(72,0,0,72,57.4548,118.091)">
                            <path d="M0.315,-0.362L0.459,-0.362L0.385,-0.016C0.34,0.001 0.293,0.01 0.244,0.01C0.125,0.01 0.066,-0.065 0.066,-0.214C0.066,-0.274 0.074,-0.337 0.091,-0.404C0.107,-0.471 0.13,-0.529 0.158,-0.578C0.187,-0.628 0.219,-0.664 0.256,-0.689C0.292,-0.713 0.331,-0.725 0.373,-0.725C0.428,-0.725 0.477,-0.71 0.52,-0.679L0.489,-0.636C0.467,-0.653 0.446,-0.664 0.428,-0.669C0.41,-0.675 0.39,-0.678 0.37,-0.678C0.334,-0.678 0.301,-0.667 0.27,-0.643C0.24,-0.62 0.213,-0.586 0.19,-0.541C0.166,-0.497 0.148,-0.445 0.134,-0.385C0.121,-0.324 0.114,-0.267 0.114,-0.211C0.114,-0.149 0.125,-0.104 0.147,-0.076C0.17,-0.049 0.203,-0.035 0.249,-0.035C0.282,-0.035 0.313,-0.04 0.343,-0.049L0.4,-0.316L0.305,-0.316L0.315,-0.362Z" style="fill:rgb(226,92,27);fill-rule:nonzero;"/>
                        </g>
                    </g>
                </g>
                <g transform="matrix(0.538335,0,0,0.538335,113.199,-2.2228)">
                    <g id="gCGCD-S2">
                        <g transform="matrix(72,0,0,72,57.4548,118.091)">
                            <path d="M0.361,-0.678C0.319,-0.678 0.279,-0.657 0.241,-0.615C0.203,-0.573 0.173,-0.515 0.149,-0.442C0.126,-0.368 0.114,-0.297 0.114,-0.228C0.114,-0.162 0.122,-0.113 0.139,-0.082C0.156,-0.051 0.184,-0.035 0.223,-0.035C0.248,-0.035 0.276,-0.042 0.307,-0.054L0.307,-0.008C0.277,0.004 0.246,0.01 0.216,0.01C0.166,0.01 0.129,-0.009 0.104,-0.047C0.078,-0.084 0.066,-0.142 0.066,-0.219C0.066,-0.303 0.08,-0.385 0.108,-0.466C0.135,-0.546 0.172,-0.61 0.218,-0.656C0.264,-0.702 0.313,-0.725 0.366,-0.725C0.406,-0.725 0.438,-0.715 0.462,-0.695L0.432,-0.653C0.413,-0.67 0.389,-0.678 0.361,-0.678Z" style="fill:rgb(226,92,27);fill-rule:nonzero;"/>
                        </g>
                    </g>
                </g>
                <g transform="matrix(0.538335,0,0,0.538335,50.1893,56.6105)">
                    <g id="gCGCD-S1">
                        <g transform="matrix(72,0,0,72,57.4548,118.091)">
                            <path d="M0.315,-0.362L0.459,-0.362L0.385,-0.016C0.34,0.001 0.293,0.01 0.244,0.01C0.125,0.01 0.066,-0.065 0.066,-0.214C0.066,-0.274 0.074,-0.337 0.091,-0.404C0.107,-0.471 0.13,-0.529 0.158,-0.578C0.187,-0.628 0.219,-0.664 0.256,-0.689C0.292,-0.713 0.331,-0.725 0.373,-0.725C0.428,-0.725 0.477,-0.71 0.52,-0.679L0.489,-0.636C0.467,-0.653 0.446,-0.664 0.428,-0.669C0.41,-0.675 0.39,-0.678 0.37,-0.678C0.334,-0.678 0.301,-0.667 0.27,-0.643C0.24,-0.62 0.213,-0.586 0.19,-0.541C0.166,-0.497 0.148,-0.445 0.134,-0.385C0.121,-0.324 0.114,-0.267 0.114,-0.211C0.114,-0.149 0.125,-0.104 0.147,-0.076C0.17,-0.049 0.203,-0.035 0.249,-0.035C0.282,-0.035 0.313,-0.04 0.343,-0.049L0.4,-0.316L0.305,-0.316L0.315,-0.362Z" style="fill:rgb(226,92,27);fill-rule:nonzero;"/>
                        </g>
                    </g>
                </g>
            </g>
            <g id="gDGBD" transform="matrix(1.68381,0,0,1.68381,-94.9726,201.386)">
                <g transform="matrix(0.538335,0,0,0.538335,268.573,33.2263)">
                    <g id="gDGBD-S5">
                        <g transform="matrix(72,0,0,72,57.4548,118.091)">
                            <path d="M0.446,-0.511C0.446,-0.414 0.432,-0.325 0.406,-0.245C0.379,-0.166 0.341,-0.105 0.293,-0.063C0.245,-0.021 0.189,-0 0.125,-0L0.032,-0L0.183,-0.714L0.289,-0.714C0.339,-0.714 0.378,-0.697 0.405,-0.663C0.432,-0.628 0.446,-0.578 0.446,-0.511ZM0.135,-0.046C0.184,-0.046 0.228,-0.065 0.267,-0.103C0.306,-0.14 0.337,-0.196 0.36,-0.271C0.383,-0.346 0.395,-0.426 0.395,-0.511C0.395,-0.615 0.357,-0.667 0.282,-0.667L0.222,-0.667L0.09,-0.046L0.135,-0.046Z" style="fill:rgb(226,92,27);fill-rule:nonzero;"/>
                        </g>
                    </g>
                </g>
                <g transform="matrix(0.538335,0,0,0.538335,282.605,-80.4394)">
                    <g id="gDGBD-S4">
                        <g transform="matrix(72,0,0,72,57.4548,118.091)">
                            <path d="M0.183,-0.714L0.293,-0.714C0.335,-0.714 0.369,-0.702 0.395,-0.677C0.42,-0.653 0.433,-0.62 0.433,-0.58C0.433,-0.526 0.421,-0.48 0.397,-0.444C0.372,-0.407 0.339,-0.385 0.297,-0.377L0.296,-0.374C0.32,-0.368 0.339,-0.353 0.354,-0.33C0.369,-0.307 0.376,-0.28 0.376,-0.249C0.376,-0.2 0.368,-0.156 0.351,-0.119C0.334,-0.081 0.31,-0.052 0.279,-0.031C0.247,-0.01 0.209,-0 0.165,-0L0.032,-0L0.183,-0.714ZM0.164,-0.397L0.236,-0.397C0.265,-0.397 0.291,-0.404 0.313,-0.419C0.335,-0.434 0.352,-0.455 0.365,-0.483C0.377,-0.51 0.383,-0.54 0.383,-0.574C0.383,-0.606 0.375,-0.629 0.358,-0.644C0.341,-0.659 0.316,-0.667 0.282,-0.667L0.222,-0.667L0.164,-0.397ZM0.155,-0.351L0.09,-0.046L0.167,-0.046C0.217,-0.046 0.256,-0.063 0.284,-0.098C0.312,-0.133 0.326,-0.181 0.326,-0.241C0.326,-0.275 0.318,-0.302 0.301,-0.322C0.285,-0.341 0.262,-0.351 0.232,-0.351L0.155,-0.351Z" style="fill:rgb(226,92,27);fill-rule:nonzero;"/>
                        </g>
                    </g>
                </g>
                <g transform="matrix(0.538335,0,0,0.538335,87.5452,-80.4394)">
                    <g id="gDGBD-S3">
                        <g transform="matrix(72,0,0,72,57.4548,118.091)">
                            <path d="M0.315,-0.362L0.459,-0.362L0.385,-0.016C0.34,0.001 0.293,0.01 0.244,0.01C0.125,0.01 0.066,-0.065 0.066,-0.214C0.066,-0.274 0.074,-0.337 0.091,-0.404C0.107,-0.471 0.13,-0.529 0.158,-0.578C0.187,-0.628 0.219,-0.664 0.256,-0.689C0.292,-0.713 0.331,-0.725 0.373,-0.725C0.428,-0.725 0.477,-0.71 0.52,-0.679L0.489,-0.636C0.467,-0.653 0.446,-0.664 0.428,-0.669C0.41,-0.675 0.39,-0.678 0.37,-0.678C0.334,-0.678 0.301,-0.667 0.27,-0.643C0.24,-0.62 0.213,-0.586 0.19,-0.541C0.166,-0.497 0.148,-0.445 0.134,-0.385C0.121,-0.324 0.114,-0.267 0.114,-0.211C0.114,-0.149 0.125,-0.104 0.147,-0.076C0.17,-0.049 0.203,-0.035 0.249,-0.035C0.282,-0.035 0.313,-0.04 0.343,-0.049L0.4,-0.316L0.305,-0.316L0.315,-0.362Z" style="fill:rgb(226,92,27);fill-rule:nonzero;"/>
                        </g>
                    </g>
                </g>
                <g transform="matrix(0.538335,0,0,0.538335,113.199,-2.2228)">
                    <g id="gDGBD-S2">
                        <g transform="matrix(72,0,0,72,57.4548,118.091)">
                            <path d="M0.446,-0.511C0.446,-0.414 0.432,-0.325 0.406,-0.245C0.379,-0.166 0.341,-0.105 0.293,-0.063C0.245,-0.021 0.189,-0 0.125,-0L0.032,-0L0.183,-0.714L0.289,-0.714C0.339,-0.714 0.378,-0.697 0.405,-0.663C0.432,-0.628 0.446,-0.578 0.446,-0.511ZM0.135,-0.046C0.184,-0.046 0.228,-0.065 0.267,-0.103C0.306,-0.14 0.337,-0.196 0.36,-0.271C0.383,-0.346 0.395,-0.426 0.395,-0.511C0.395,-0.615 0.357,-0.667 0.282,-0.667L0.222,-0.667L0.09,-0.046L0.135,-0.046Z" style="fill:rgb(226,92,27);fill-rule:nonzero;"/>
                        </g>
                    </g>
                </g>
                <g transform="matrix(0.538335,0,0,0.538335,50.1893,56.6105)">
                    <g id="gDGBD-S1">
                        <g transform="matrix(72,0,0,72,57.4548,118.091)">
                            <path d="M0.315,-0.362L0.459,-0.362L0.385,-0.016C0.34,0.001 0.293,0.01 0.244,0.01C0.125,0.01 0.066,-0.065 0.066,-0.214C0.066,-0.274 0.074,-0.337 0.091,-0.404C0.107,-0.471 0.13,-0.529 0.158,-0.578C0.187,-0.628 0.219,-0.664 0.256,-0.689C0.292,-0.713 0.331,-0.725 0.373,-0.725C0.428,-0.725 0.477,-0.71 0.52,-0.679L0.489,-0.636C0.467,-0.653 0.446,-0.664 0.428,-0.669C0.41,-0.675 0.39,-0.678 0.37,-0.678C0.334,-0.678 0.301,-0.667 0.27,-0.643C0.24,-0.62 0.213,-0.586 0.19,-0.541C0.166,-0.497 0.148,-0.445 0.134,-0.385C0.121,-0.324 0.114,-0.267 0.114,-0.211C0.114,-0.149 0.125,-0.104 0.147,-0.076C0.17,-0.049 0.203,-0.035 0.249,-0.035C0.282,-0.035 0.313,-0.04 0.343,-0.049L0.4,-0.316L0.305,-0.316L0.315,-0.362Z" style="fill:rgb(226,92,27);fill-rule:nonzero;"/>
                        </g>
                    </g>
                </g>
            </g>
        </g>
    </g>
</svg>
